# AST/ASF file generated using VICON BodyLanguage
# -----------------------------------------------
:version 1.10
:name VICON
:units
  mass 1.0
  length 0.45
  angle deg
:documentation
   .ast/.asf automatically generated from VICON data using
   VICON BodyBuilder and BodyLanguage model FoxedUp or BRILLIANT.MOD
:root
   order TX TY TZ RX RY RZ
   axis XYZ
   position 0 0 0  
   orientation 0 0 0 
:bonedata
  begin
     id 1 
     name lhipjoint
     direction 0.584852 -0.759097 0.285867 
     length 2.43633 
     axis 0 0 0  XYZ
  end
  begin
     id 2 
     name lfemur
     direction 0.34202 -0.939693 0  
     length 7.14704  
     axis 0 0 20  XYZ
    dof rx ry rz
    limits (-160.0 20.0)
           (-70.0 70.0)
           (-60.0 70.0)
  end
  begin
     id 3 
     name ltibia
     direction 0.342022 -0.939692 0   
     length 7.68483   
     axis 0 0 20   XYZ
    dof rx
    limits (-10.0 170.0)
  end
  begin
     id 4 
     name lfoot
     direction 0.0999605 -0.274639 0.956337   
     length 2.40452   
     axis -90 7.62852e-016 20   XYZ
    dof rx rz
    limits (-45.0 90.0)
           (-70.0 20.0)
  end
  begin
     id 5 
     name ltoes
     direction 1.53468e-011 -4.21881e-011 1   
     length 1.19837   
     axis -90 7.62852e-016 20   XYZ
    dof rx
    limits (-90.0 20.0)
  end
  begin
     id 6 
     name rhipjoint
     direction -0.569886 -0.769002 0.289597   
     length 2.40495  
     axis 0 0 0  XYZ 
  end
  begin
     id 7 
     name rfemur
     direction -0.34202 -0.939693 0   
     length 7.45086   
     axis 0 0 -20   XYZ
    dof rx ry rz
    limits (-160.0 20.0)
           (-70.0 70.0)
           (-70.0 60.0)
  end
  begin
     id 8 
     name rtibia
     direction -0.34202 -0.939693 0   
     length 7.76831   
     axis 0 0 -20   XYZ
    dof rx
    limits (-10.0 170.0)
 end
 begin
     id 9 
     name rfoot
     direction -0.0798572 -0.219406 0.97236   
     length 2.35911  
     axis -90 -7.62852e-016 -20   XYZ
    dof rx rz
    limits (-45.0 90.0)
           (-20.0 70.0)
  end
  begin
     id 10 
     name rtoes
     direction -1.53469e-011 -4.21728e-011 1   
     length 1.18261   
     axis -90 -7.62852e-016 -20   XYZ
    dof rx
    limits (-90.0 20.0)
  end
  begin
     id 11 
     name lowerback
     direction 0.0242088 0.999437 0.0232389   
     length 2.1561   
     axis 0 0 0   XYZ
    dof rx ry rz
    limits (-20.0 45.0)
           (-30.0 30.0)
           (-30.0 30.0)
  end
  begin
     id 12 
     name upperback
     direction -0.0356893 0.999013 -0.0264323   
     length 2.14431   
     axis 0 0 0   XYZ
    dof rx ry rz
    limits (-20.0 45.0)
           (-30.0 30.0)
           (-30.0 30.0)
  end
  begin
     id 13 
     name thorax
     direction -0.0472163 0.998194 -0.0371284   
     length 2.16169   
     axis 0 0 0   XYZ
    dof rx ry rz
    limits (-20.0 45.0)
           (-30.0 30.0)
           (-30.0 30.0)
  end
  begin
     id 14 
     name lowerneck
     direction 0.00863244 0.999921 0.00911972   
     length 1.58651   
     axis 0 0 0   XYZ
    dof rx ry rz
    limits (-20.0 45.0)
           (-30.0 30.0)
           (-30.0 30.0)
  end
  begin
     id 15 
     name upperneck
     direction 0.149523 0.979068 -0.138086   
     length 1.57486   
     axis 0 0 0   XYZ
    dof rx ry rz
    limits (-20.0 45.0)
           (-30.0 30.0)
           (-30.0 30.0)
  end
  begin
     id 16
     name head
     direction 0.0445219 0.997708 -0.0509576  
     length 1.6019  
     axis 0 0 0   XYZ
    dof rx ry rz
    limits (-20.0 45.0)
           (-30.0 30.0)
           (-30.0 30.0)
  end
  begin
     id 17 
     name lclavicle
     direction 0.911271 0.381667 -0.154644  
     length 3.80848  
     axis 0 0 0   XYZ
    dof ry rz
    limits (-20.0 10.0)
           (0.0 20.0)
  end
  begin
     id 18 
     name lhumerus
     direction 1 -4.49003e-011 2.1308e-027   
     length 5.19069   
     axis 180 -30 -90   XYZ
    dof rx ry rz
    limits (-60.0 90.0)
           (-90.0 90.0)
           (-90.0 90.0)
  end
  begin
     id 19
     name lradius
     direction 1 -4.48914e-011 4.01554e-027   
     length 3.30016   
     axis 180 -30 -90   XYZ
    dof rx
    limits (-10.0 170.0)
  end
  begin
     id 20
     name lwrist
     direction 1 -4.49003e-011 1.1934e-026   
     length 1.65008   
     axis -8.46377e-015 90 90   XYZ
    dof ry
    limits (-180.0 0.0)
 end
  begin
     id 21 
     name lhand
     direction 1 -4.49034e-011 2.38659e-026   
     length 0.707698   
     axis -1.52313e-014 90 90   XYZ
    dof rx rz
    limits (-90.0 90.0)
           (-45.0 45.0)
  end
  begin
     id 22 
     name lfingers
     direction 1 -4.48691e-011 4.77775e-026   
     length 0.570564   
     axis -3.04623e-014 90 90   XYZ
    dof rx
    limits (0.0 90.0)
  end
  begin
     id 23
     name lthumb
     direction 0.707107 -6.34832e-011 0.707107   
     length 0.819219   
     axis -90 45 -1.62303e-014   XYZ
    dof rx rz
    limits (-45.0 45.0)
           (-45.0 45.0)
  end
  begin
     id 24 
     name rclavicle
     direction -0.815579 0.573708 -0.0754329   
     length 3.54371  
     axis 0 0 0   XYZ 
    dof ry rz
    limits (-10.0 20.0)
           (-20.0 0.0)
  end
  begin
     id 25 
     name rhumerus
     direction -1 -4.48956e-011 3.05351e-028  
     length 5.23924   
     axis 180 30 90   XYZ
    dof rx ry rz
    limits (-90.0 60.0)
           (-90.0 90.0)
           (-90.0 90.0)
  end
  begin
     id 26 
     name rradius
     direction -1 -4.49013e-011 3.53849e-027   
     length 3.32953   
     axis 180 30 90   XYZ
    dof rx
    limits (-10.0 170.0)
  end
  begin
     id 27 
     name rwrist
     direction -1 -4.48901e-011 1.19374e-026   
     length 1.66477   
     axis -8.46377e-015 -90 -90   XYZ
    dof ry
    limits (-180.0 0.0)
  end
  begin
     id 28
     name rhand
     direction -1 -4.48877e-011 2.38764e-026   
     length 0.607414   
     axis -1.52313e-014 -90 -90   XYZ
    dof rx rz
    limits (-90.0 90.0)
           (-45.0 45.0)
  end
  begin
     id 29
     name rfingers
     direction -1 -4.48882e-011 4.77521e-026   
     length 0.489712   
     axis -3.04623e-014 -90 -90   XYZ
    dof rx
    limits (0.0 90.0)
  end
  begin
     id 30
     name rthumb
     direction -0.707107 -6.34974e-011 0.707107   
     length 0.703132   
     axis -90 -45 1.62303e-014   XYZ
    dof rx rz
    limits (-45.0 45.0)
           (-45.0 45.0)
  end
:hierarchy
  begin
    root lhipjoint rhipjoint lowerback
    lhipjoint lfemur
    lfemur ltibia
    ltibia lfoot
    lfoot ltoes
    rhipjoint rfemur
    rfemur rtibia
    rtibia rfoot
    rfoot rtoes
    lowerback upperback
    upperback thorax
    thorax lowerneck lclavicle rclavicle
    lowerneck upperneck
    upperneck head
    lclavicle lhumerus
    lhumerus lradius
    lradius lwrist
    lwrist lhand lthumb
    lhand lfingers
    rclavicle rhumerus
    rhumerus rradius
    rradius rwrist
    rwrist rhand rthumb
    rhand rfingers
  end

#!OML:ASF E:\VariousWalksJay\Project 1\Capture day 1\Session 1\Actor2.ASF
:FULLY-SPECIFIED
:DEGREES
292
root 9.0847 16.7843 41.1753 174.991 -53.885 -172.216
lowerback -0.754417 0.688984 5.57904
upperback 4.09999 0.668402 -0.423382
thorax 4.7531 0.519338 -3.53753
lowerneck -9.47146 1.32661 1.40345
upperneck 6.88559 0.703709 7.86454
head 3.96823 0.690366 2.45021
rclavicle -1.6847e-013 1.39149e-014
rhumerus -42.3913 7.22901 -86.062
rradius 42.6361
rwrist 0.0746166
rhand -11.3566 -2.11762
rfingers 7.12502
rthumb 14.6769 -31.5781
lclavicle -1.6847e-013 1.39149e-014
lhumerus -33.5718 -15.2539 82.2386
lradius 33.3295
lwrist 7.47035
lhand -6.36277 -10.0957
lfingers 7.12502
lthumb 19.4836 18.9481
rfemur -9.62584 -5.48941 25.4409
rtibia 33.0379
rfoot -25.3693 -18.5595
rtoes -3.7973
lfemur -9.69276 3.03807 -13.9692
ltibia 29.499
lfoot -20.086 -0.0725899
ltoes -6.25424
293
root 9.08581 16.7847 41.178 175.071 -53.9522 -172.339
lowerback -0.718426 0.681643 5.53549
upperback 4.09555 0.663401 -0.444631
thorax 4.7267 0.514903 -3.53577
lowerneck -9.51051 1.31585 1.3421
upperneck 6.93857 0.687565 7.90941
head 3.99593 0.684937 2.4783
rclavicle 2.25621e-014 -1.74931e-014
rhumerus -42.4226 7.28037 -86.074
rradius 42.6524
rwrist 0.068345
rhand -11.6981 -2.10032
rfingers 7.12502
rthumb 14.3479 -31.5845
lclavicle 2.25621e-014 -1.74931e-014
lhumerus -33.5744 -15.2634 82.2821
lradius 33.3691
lwrist 7.50112
lhand -6.39691 -10.1042
lfingers 7.12502
lthumb 19.4508 18.943
rfemur -9.61145 -5.57846 25.3396
rtibia 33.043
rfoot -25.3608 -18.5213
rtoes -3.74246
lfemur -9.68374 2.98619 -14.062
ltibia 29.4922
lfoot -20.0757 -0.0845466
ltoes -6.23165
294
root 9.08668 16.7854 41.1784 175.092 -54.0113 -172.384
lowerback -0.734018 0.686074 5.52953
upperback 4.09826 0.669961 -0.473458
thorax 4.73945 0.519128 -3.56201
lowerneck -9.47991 1.29886 1.35331
upperneck 6.93495 0.660926 7.93716
head 3.9898 0.672127 2.4835
rclavicle -1.21259e-013 2.94201e-014
rhumerus -42.4294 7.24643 -86.0979
rradius 42.6314
rwrist 0.078302
rhand -11.7449 -2.05221
rfingers 7.12502
rthumb 14.3028 -31.5396
lclavicle -1.21259e-013 2.94201e-014
lhumerus -33.5894 -15.3729 82.2958
lradius 33.4067
lwrist 7.60415
lhand -6.40194 -10.1249
lfingers 7.12502
lthumb 19.4459 18.9227
rfemur -9.59868 -5.59571 25.3054
rtibia 33.0501
rfoot -25.3817 -18.5615
rtoes -3.7369
lfemur -9.67071 2.96802 -14.0954
ltibia 29.4787
lfoot -20.0604 -0.141828
ltoes -6.10019
295
root 9.08866 16.7855 41.1795 175.033 -54.0523 -172.328
lowerback -0.710986 0.684301 5.57683
upperback 4.08956 0.667578 -0.46788
thorax 4.71791 0.518888 -3.58313
lowerneck -9.46648 1.28631 1.38863
upperneck 6.94481 0.643476 7.89741
head 3.99102 0.662962 2.46206
rclavicle 1.72943e-014 -3.57812e-015
rhumerus -42.448 7.28653 -86.1203
rradius 42.6185
rwrist 0.0792332
rhand -11.6741 -2.04238
rfingers 7.12502
rthumb 14.371 -31.5249
lclavicle 1.72943e-014 -3.57812e-015
lhumerus -33.6003 -15.3701 82.3083
lradius 33.4259
lwrist 7.60827
lhand -6.39848 -10.1617
lfingers 7.12502
lthumb 19.4493 18.8855
rfemur -9.58494 -5.61145 25.3389
rtibia 33.0409
rfoot -25.3982 -18.5885
rtoes -3.72489
lfemur -9.6885 2.97143 -14.0625
ltibia 29.4926
lfoot -20.038 -0.150305
ltoes -6.24835
296
root 9.09001 16.7846 41.1788 174.966 -54.0895 -172.288
lowerback -0.715905 0.689483 5.56228
upperback 4.12266 0.670549 -0.428581
thorax 4.75496 0.519984 -3.53366
lowerneck -9.54066 1.27183 1.30016
upperneck 6.97361 0.629608 7.92319
head 4.01695 0.657643 2.48874
rclavicle -8.88567e-014 -2.78299e-015
rhumerus -42.41 7.33226 -86.0786
rradius 42.6066
rwrist 0.0741216
rhand -11.4727 -2.06862
rfingers 7.12502
rthumb 14.5651 -31.5373
lclavicle -8.88567e-014 -2.78299e-015
lhumerus -33.5574 -15.3997 82.3809
lradius 33.4465
lwrist 7.62115
lhand -6.39713 -10.1419
lfingers 7.12502
lthumb 19.4506 18.9052
rfemur -9.54935 -5.63945 25.3632
rtibia 33.0425
rfoot -25.4084 -18.5948
rtoes -3.71101
lfemur -9.66796 2.90655 -14.0441
ltibia 29.4923
lfoot -20.031 -0.101365
ltoes -6.32181
297
root 9.09325 16.7848 41.1798 174.892 -54.1237 -172.202
lowerback -0.707294 0.702218 5.62056
upperback 4.1211 0.686085 -0.426631
thorax 4.75138 0.52975 -3.56368
lowerneck -9.54674 1.24777 1.3363
upperneck 6.98081 0.592651 7.90913
head 4.02212 0.639993 2.47516
rclavicle -7.16619e-014 1.63003e-014
rhumerus -42.4228 7.29053 -86.0829
rradius 42.6222
rwrist 0.0723853
rhand -11.7924 -1.95167
rfingers 7.12502
rthumb 14.257 -31.4423
lclavicle -7.16619e-014 1.63003e-014
lhumerus -33.5868 -15.5557 82.4241
lradius 33.5433
lwrist 7.73123
lhand -6.39703 -10.0971
lfingers 7.12502
lthumb 19.4506 18.95
rfemur -9.55671 -5.66445 25.4202
rtibia 33.0345
rfoot -25.4017 -18.6211
rtoes -3.72775
lfemur -9.67898 2.85258 -13.9844
ltibia 29.5097
lfoot -20.0365 -0.117303
ltoes -6.23892
298
root 9.09481 16.785 41.1798 174.966 -54.1886 -172.328
lowerback -0.701564 0.706807 5.55021
upperback 4.13005 0.695729 -0.45494
thorax 4.75736 0.532816 -3.55317
lowerneck -9.55984 1.22698 1.36039
upperneck 7.00136 0.560989 7.89274
head 4.03323 0.62518 2.4638
rclavicle -4.57205e-015 1.19271e-015
rhumerus -42.4303 7.26914 -86.0902
rradius 42.6188
rwrist 0.0697569
rhand -11.7234 -1.96442
rfingers 7.12502
rthumb 14.3236 -31.4503
lclavicle -4.57205e-015 1.19271e-015
lhumerus -33.5651 -15.634 82.4485
lradius 33.5405
lwrist 7.73075
lhand -6.45504 -10.0669
lfingers 7.12502
lthumb 19.3949 18.9859
rfemur -9.52621 -5.79388 25.3243
rtibia 33.0298
rfoot -25.3584 -18.5796
rtoes -3.92362
lfemur -9.67788 2.90833 -14.0647
ltibia 29.5211
lfoot -20.0152 -0.194928
ltoes -6.36239
299
root 9.09773 16.7839 41.1793 174.872 -54.212 -172.24
lowerback -0.686436 0.704345 5.58614
upperback 4.14233 0.689916 -0.429096
thorax 4.7615 0.530731 -3.5468
lowerneck -9.59272 1.22447 1.34714
upperneck 7.33445 0.524048 8.09499
head 3.74989 0.642394 2.28305
rclavicle -3.65764e-014 -1.94809e-014
rhumerus -42.4093 7.31446 -86.0848
rradius 42.612
rwrist 0.0727848
rhand -12.0237 -1.93871
rfingers 7.12502
rthumb 14.0342 -31.4449
lclavicle -3.65764e-014 -1.94809e-014
lhumerus -33.5479 -15.6777 82.4945
lradius 33.564
lwrist 7.75896
lhand -6.46271 -10.0673
lfingers 7.12502
lthumb 19.3875 18.9862
rfemur -9.49919 -5.75652 25.3927
rtibia 33.0141
rfoot -25.4251 -18.5995
rtoes -3.63725
lfemur -9.67927 2.92783 -13.9927
ltibia 29.5386
lfoot -20.007 -0.267877
ltoes -6.22534
300
root 9.10154 16.7842 41.1777 174.782 -54.2454 -172.152
lowerback -0.65623 0.718075 5.62079
upperback 4.13274 0.709164 -0.423615
thorax 4.73693 0.540662 -3.55989
lowerneck -9.60001 1.201 1.34204
upperneck 7.04038 0.521096 7.91869
head 4.05712 0.607918 2.47552
rclavicle -8.17005e-014 1.90833e-014
rhumerus -42.4346 7.26677 -86.0926
rradius 42.6023
rwrist 0.0781354
rhand -12.0032 -1.92088
rfingers 7.12502
rthumb 14.0539 -31.4257
lclavicle -8.17005e-014 1.90833e-014
lhumerus -33.528 -15.7471 82.5053
lradius 33.5266
lwrist 7.72024
lhand -6.43459 -10.1235
lfingers 7.12502
lthumb 19.4145 18.9272
rfemur -9.47302 -5.70173 25.4721
rtibia 33.0036
rfoot -25.4478 -18.6836
rtoes -3.62623
lfemur -9.69231 3.01282 -13.9195
ltibia 29.5423
lfoot -19.9627 -0.301542
ltoes -6.61508
301
root 9.10264 16.7844 41.1799 174.75 -54.2862 -172.145
lowerback -0.647389 0.71232 5.62929
upperback 4.14529 0.700122 -0.409512
thorax 4.74414 0.536349 -3.55045
lowerneck -9.60506 1.19921 1.3692
upperneck 7.35431 0.488054 8.06932
head 3.75941 0.625073 2.26978
rclavicle -6.01324e-014 1.55052e-014
rhumerus -42.4232 7.32844 -86.0763
rradius 42.6065
rwrist 0.060795
rhand -11.8264 -1.96309
rfingers 7.12502
rthumb 14.2242 -31.456
lclavicle -6.01324e-014 1.55052e-014
lhumerus -33.5701 -15.8578 82.5712
lradius 33.6046
lwrist 7.79543
lhand -6.43491 -10.1069
lfingers 7.12502
lthumb 19.4142 18.9439
rfemur -9.44863 -5.73511 25.4665
rtibia 32.9911
rfoot -25.4375 -18.7026
rtoes -3.6521
lfemur -9.67493 2.91391 -13.9279
ltibia 29.543
lfoot -19.9813 -0.289842
ltoes -6.35889
302
root 9.10401 16.7841 41.1795 174.751 -54.3387 -172.178
lowerback -0.628614 0.705701 5.60684
upperback 4.13266 0.694386 -0.41757
thorax 4.71911 0.532067 -3.54672
lowerneck -9.59787 1.18922 1.33967
upperneck 7.39944 0.471619 8.10368
head 3.77239 0.618874 2.28449
rclavicle 2.88238e-015 2.0276e-014
rhumerus -42.4623 7.32863 -86.0851
rradius 42.6052
rwrist 0.0662103
rhand -11.7556 -1.97978
rfingers 7.12502
rthumb 14.2925 -31.4679
lclavicle 2.88238e-015 2.0276e-014
lhumerus -33.6409 -15.9412 82.5998
lradius 33.6443
lwrist 7.81261
lhand -6.43534 -10.1219
lfingers 7.12502
lthumb 19.4138 18.929
rfemur -9.41614 -5.77566 25.4343
rtibia 32.9786
rfoot -25.485 -18.6607
rtoes -3.44866
lfemur -9.6616 2.92927 -13.9427
ltibia 29.548
lfoot -19.961 -0.366747
ltoes -6.29871
303
root 9.10598 16.7848 41.1817 174.823 -54.3779 -172.264
lowerback -0.617538 0.685739 5.57749
upperback 4.10908 0.672468 -0.448517
thorax 4.68544 0.519811 -3.56375
lowerneck -9.54799 1.19912 1.40536
upperneck 7.41815 0.479248 8.06971
head 3.76994 0.622056 2.26352
rclavicle -5.725e-014 2.26615e-014
rhumerus -42.4897 7.3667 -86.1328
rradius 42.6078
rwrist 0.0582736
rhand -11.7006 -2.00498
rfingers 7.12502
rthumb 14.3455 -31.4893
lclavicle -5.725e-014 2.26615e-014
lhumerus -33.7118 -15.9707 82.5952
lradius 33.6905
lwrist 7.83618
lhand -6.51266 -10.0478
lfingers 7.12502
lthumb 19.3395 19.0106
rfemur -9.42467 -5.81939 25.3678
rtibia 32.9722
rfoot -25.4868 -18.6216
rtoes -3.31805
lfemur -9.67283 2.85059 -14.0118
ltibia 29.5407
lfoot -19.9486 -0.328113
ltoes -6.27753
304
root 9.1077 16.7845 41.1824 174.749 -54.414 -172.189
lowerback -0.606708 0.684132 5.63551
upperback 4.1039 0.669154 -0.443515
thorax 4.67474 0.519868 -3.59143
lowerneck -9.5075 1.1929 1.36464
upperneck 7.0473 0.510509 7.91398
head 4.04137 0.601271 2.46739
rclavicle -1.82882e-014 -5.56597e-015
rhumerus -42.5027 7.40959 -86.1531
rradius 42.6032
rwrist 0.0484069
rhand -11.7558 -1.9316
rfingers 7.12502
rthumb 14.2923 -31.4197
lclavicle -1.82882e-014 -5.56597e-015
lhumerus -33.7292 -16.0506 82.6159
lradius 33.6933
lwrist 7.84747
lhand -6.50735 -10.0521
lfingers 7.12502
lthumb 19.3446 19.0057
rfemur -9.41418 -5.85335 25.4137
rtibia 32.968
rfoot -25.4605 -18.658
rtoes -3.55554
lfemur -9.67558 2.86217 -13.9682
ltibia 29.5351
lfoot -19.9293 -0.326579
ltoes -6.47333
305
root 9.10899 16.7849 41.1831 174.737 -54.4501 -172.178
lowerback -0.624596 0.684466 5.6267
upperback 4.11196 0.667391 -0.422569
thorax 4.6927 0.518737 -3.56454
lowerneck -9.55245 1.18867 1.39468
upperneck 7.42661 0.464189 8.08477
head 3.77374 0.61537 2.26911
rclavicle 6.39093e-014 -3.97569e-015
rhumerus -42.4944 7.4314 -86.1083
rradius 42.6181
rwrist 0.0452369
rhand -11.7139 -1.89751
rfingers 7.12502
rthumb 14.3327 -31.3828
lclavicle 6.39093e-014 -3.97569e-015
lhumerus -33.7386 -16.1137 82.6788
lradius 33.726
lwrist 7.89858
lhand -6.54501 -10.0057
lfingers 7.12502
lthumb 19.3084 19.0557
rfemur -9.41282 -5.85911 25.4152
rtibia 32.9678
rfoot -25.5269 -18.6428
rtoes -3.29291
lfemur -9.69553 2.96748 -13.958
ltibia 29.5275
lfoot -19.8993 -0.417296
ltoes -6.61017
